<?xml version="1.0" standalone="no"?>
<!DOCTYPE svg PUBLIC "-//W3C//DTD SVG 20010904//EN"
 "http://www.w3.org/TR/2001/REC-SVG-20010904/DTD/svg10.dtd">
<svg version="1.0" xmlns="http://www.w3.org/2000/svg"
 width="578.000000pt" height="432.000000pt" viewBox="0 0 578.000000 432.000000"
 preserveAspectRatio="xMidYMid meet">

<g transform="translate(0.000000,432.000000) scale(0.100000,-0.100000)"
fill="#000000" stroke="none">
<path d="M3331 3829 c-248 -32 -401 -157 -508 -414 -5 -12 -9 63 -11 182 l-2
201 -403 2 c-222 0 -411 -2 -420 -6 -16 -6 -17 -126 -17 -1769 0 -1719 0
-1764 19 -1770 10 -3 199 -5 420 -4 l401 2 0 1362 c0 1561 -12 1391 102 1438
93 38 347 87 451 87 l57 0 0 350 c0 274 -3 350 -12 349 -7 -1 -42 -5 -77 -10z"/>
<path d="M4455 3823 c-108 -10 -276 -47 -358 -79 -179 -70 -289 -168 -368
-330 -66 -137 -90 -248 -96 -466 l-6 -188 405 0 406 0 4 153 c4 165 10 187 66
240 84 80 189 61 254 -44 40 -63 48 -126 48 -359 0 -189 -2 -209 -17 -215 -10
-4 -128 -45 -263 -90 -420 -142 -565 -207 -670 -302 -146 -133 -216 -275 -266
-543 -25 -134 -26 -519 -1 -675 43 -273 106 -434 210 -539 109 -109 228 -154
428 -163 102 -5 126 -3 190 16 99 30 152 63 222 135 55 57 88 114 160 276 15
33 16 24 16 -176 1 -177 3 -213 16 -218 8 -3 195 -4 415 -3 l400 2 0 1395 c0
1199 -2 1407 -15 1481 -38 217 -124 364 -284 488 -191 147 -413 213 -711 209
-80 -1 -163 -3 -185 -5z m343 -2245 c-3 -549 -4 -564 -24 -608 -28 -60 -59
-87 -116 -99 -91 -21 -184 32 -208 118 -23 83 -32 243 -27 496 7 347 21 401
133 511 42 41 91 75 146 103 46 22 87 41 91 41 4 0 6 -253 5 -562z"/>
<path d="M120 3585 l0 -195 720 0 720 0 0 195 0 195 -720 0 -720 0 0 -195z"/>
<path d="M730 3249 c-171 -22 -306 -82 -405 -183 -80 -81 -125 -160 -154 -266
-40 -152 -43 -219 -39 -1080 4 -804 5 -828 26 -924 68 -303 262 -496 544 -537
116 -17 332 -5 417 22 211 69 357 234 427 484 l28 100 4 870 c2 597 0 890 -8
935 -28 170 -93 312 -181 399 -144 143 -401 213 -659 180z m193 -540 c34 -15
54 -56 66 -130 7 -40 11 -341 11 -819 -1 -892 -4 -925 -82 -966 -21 -11 -47
-15 -80 -12 -60 6 -101 41 -117 101 -9 31 -11 275 -9 887 3 791 4 847 21 878
34 62 124 91 190 61z"/>
</g>
</svg>
